<svg width="28" height="28" viewBox="0 0 28 28" fill="none" xmlns="http://www.w3.org/2000/svg">
<path fill-rule="evenodd" clip-rule="evenodd" d="M8.29712 4.69599C7.06968 3.56813 5.183 3.56813 3.95556 4.69599C3.9053 4.74218 3.85164 4.79585 3.78196 4.86554L2.73487 5.91263C1.68124 6.96626 1.23894 8.48517 1.56217 9.93975C3.39614 18.1926 9.84143 24.6379 18.0943 26.4718C19.5488 26.7951 21.0678 26.3528 22.1214 25.2991L23.1684 24.2522C23.2381 24.1824 23.2918 24.1287 23.338 24.0784C24.4659 22.851 24.4659 20.9643 23.338 19.7369C23.2918 19.6866 23.2381 19.6329 23.1684 19.5632L21.4542 17.849C20.2641 16.6589 18.4668 16.3186 16.9239 16.9911C16.0407 17.3761 15.0117 17.1812 14.3304 16.4999L11.5341 13.7036C10.8528 13.0223 10.6579 11.9934 11.0429 11.1101C11.7155 9.56719 11.3751 7.76991 10.185 6.57979L8.47075 4.86557C8.40106 4.79586 8.34739 4.74218 8.29712 4.69599ZM5.13962 5.98459C5.69755 5.47193 6.55513 5.47193 7.11306 5.98459C7.13232 6.00229 7.15756 6.02725 7.2463 6.116L8.94753 7.81723C9.62887 8.49857 9.82373 9.5275 9.43871 10.4108C8.76617 11.9537 9.10655 13.7509 10.2967 14.9411L13.0929 17.7373C14.2831 18.9275 16.0803 19.2678 17.6232 18.5953C18.5065 18.2103 19.5354 18.4051 20.2168 19.0865L21.918 20.7877C22.0068 20.8764 22.0317 20.9017 22.0494 20.921C22.5621 21.4789 22.5621 22.3365 22.0494 22.8944C22.0317 22.9137 22.0068 22.9389 21.918 23.0276L20.8839 24.0617C20.2534 24.6923 19.3444 24.957 18.4739 24.7635C10.8843 23.0769 4.95707 17.1497 3.2705 9.56012C3.07706 8.68962 3.34176 7.78062 3.97231 7.15007L5.00638 6.116C5.09512 6.02726 5.12036 6.00229 5.13962 5.98459Z" fill="white"/>
</svg>
