<svg width="72" height="72" viewBox="0 0 72 72" fill="none" xmlns="http://www.w3.org/2000/svg">
<g clip-path="url(#clip0_544_106)">
<path fill-rule="evenodd" clip-rule="evenodd" d="M62.9569 0.251122C62.5938 0.652325 62.2969 1.49017 62.2969 2.11398C62.2969 2.73639 62.4533 3.12873 62.8947 3.61375C63.1899 3.93803 63.1809 4.19579 62.8455 5.02014C62.6838 5.41782 62.6928 5.50361 62.9234 5.75842C63.488 6.38223 64.2432 5.90889 64.56 4.7327C64.7626 3.97979 64.6438 3.31745 64.2021 2.73836C63.7833 2.18936 63.7577 1.87731 64.0767 1.20864C64.2936 0.753434 64.2935 0.696059 64.0734 0.360106C63.7956 -0.0638783 63.2869 -0.11366 62.9569 0.251122ZM18.5869 0.462762C18.5039 0.562606 18.4171 1.08067 18.3938 1.61392L18.3516 2.58353L17.345 2.7527C13.0271 3.47818 9.56648 6.45592 8.15896 10.6568C7.64469 12.1919 7.62037 12.7009 8.04702 12.9996C8.32321 13.1931 9.60895 13.2186 19.125 13.2186C31.0242 13.2186 30.5157 13.2572 30.5157 12.3525C30.5157 11.7593 29.7435 9.51071 29.2341 8.62042C27.4249 5.45832 24.4236 3.34389 20.9051 2.7527L19.8985 2.58353L19.8563 1.61392C19.8329 1.08067 19.7462 0.562606 19.6632 0.462762C19.4684 0.228059 18.7816 0.228059 18.5869 0.462762ZM40.9422 0.748934C40.6172 1.14043 40.3594 1.98672 40.3594 2.66228C40.3594 3.24264 40.433 3.44879 40.7813 3.8455C41.2469 4.37579 41.2936 4.67589 40.9922 5.20295C40.6902 5.73142 40.7368 6.15175 41.126 6.4067C41.7488 6.81479 42.2639 6.41148 42.6145 5.24148C42.8319 4.51572 42.6986 3.78348 42.2522 3.25318C41.8495 2.77464 41.8243 2.48017 42.1247 1.76143C42.3225 1.28781 42.3223 1.20709 42.1214 0.900528C41.8734 0.521966 41.2022 0.435622 40.9422 0.748934ZM51.969 1.01556C51.8272 1.21778 51.75 1.63937 51.75 2.21087V3.09357H51.2843C50.5028 3.09357 48.6875 3.63723 47.5365 4.21604C45.4043 5.28803 43.6538 7.018 42.5478 9.14593C41.7042 10.7692 41.3472 12.1068 41.2453 14.0272L41.1614 15.6092H40.2762C39.5209 15.6092 39.3589 15.655 39.1721 15.9218C38.8827 16.3348 38.8959 16.5363 39.2344 16.8748C39.4192 17.0596 39.7031 17.1561 40.0626 17.1561C40.5798 17.1561 40.6145 17.1836 40.7051 17.666C41.5104 21.9593 43.3048 23.6248 47.1246 23.6248C48.6486 23.6248 48.6609 23.6275 48.5815 23.9412C48.5375 24.1153 48.2974 24.9854 48.0482 25.8748L47.5951 27.492L35.9237 27.528L24.2524 27.5639L23.7804 25.8405C23.5208 24.8926 23.2774 24.0063 23.2394 23.8709C23.1776 23.6506 23.2943 23.6248 24.3566 23.6248C25.8019 23.6248 26.8326 23.345 27.801 22.6894C29.223 21.7268 29.6871 20.8194 30.433 17.5428C30.5179 17.1697 30.5532 17.1561 31.4324 17.1561C32.1563 17.1561 32.4016 17.0983 32.625 16.8748C32.9635 16.5363 32.9767 16.3348 32.6873 15.9218L32.4685 15.6092H19.3891C10.642 15.6092 6.2196 15.6574 6.03763 15.7547C5.6983 15.9364 5.67426 16.6237 5.99769 16.8928C6.12538 16.9989 6.64359 17.1174 7.14941 17.1561L8.06896 17.2264L8.45048 18.7952C8.88276 20.5726 9.29493 21.3736 10.2121 22.219C11.2559 23.1813 12.1953 23.5344 13.8868 23.6004C14.8686 23.6387 15.3282 23.7096 15.3282 23.8227C15.3282 23.914 15.1749 24.5237 14.9874 25.1777C14.8001 25.8318 14.5774 26.6317 14.4924 26.9551L14.338 27.5433L9.31363 27.5879L4.2891 27.6326L3.36843 28.069C2.26115 28.5937 1.57616 29.1715 1.00354 30.0638C0.120554 31.4399 0.140663 31.0774 0.140663 45.5701C0.140663 58.1478 0.152194 58.7479 0.397866 58.9702C0.623007 59.1741 1.10324 59.2029 4.26505 59.2029H7.87504V65.2888C7.87504 70.5695 7.90401 71.4161 8.09399 71.6872C8.30971 71.9953 8.36062 71.9998 11.6581 71.9998C14.7202 71.9998 15.023 71.978 15.2361 71.7426C15.5745 71.3687 15.5847 66.6514 15.2479 66.3145C14.9468 66.0136 14.5409 66.037 14.2032 66.3748C13.9498 66.6282 13.9219 66.8435 13.9219 68.5545V70.4529H11.6719H9.42191V64.8279V59.2029H36H62.5782V64.8279V70.4529H60.3282H58.0782V68.3749C58.0782 66.7216 58.0334 66.2329 57.8592 65.9843C57.5782 65.5831 56.8826 65.5592 56.6768 65.9437C56.5912 66.1037 56.5313 67.3108 56.5313 68.875C56.5313 71.2728 56.5566 71.5573 56.7885 71.7671C57.0125 71.9699 57.4738 71.9998 60.3664 71.9998C63.6386 71.9998 63.6904 71.9952 63.9061 71.6872C64.0961 71.4161 64.125 70.5695 64.125 65.2888V59.2029H67.7595C71.1019 59.2029 71.4126 59.1823 71.6267 58.9457C71.8397 58.7103 71.8594 57.578 71.8594 45.5456C71.8594 31.0799 71.8795 31.4396 70.9965 30.0638C70.4239 29.1715 69.7389 28.5937 68.6316 28.069L67.711 27.6326L62.6163 27.5881L57.5214 27.5435L57.3801 27.0256C57.3023 26.7407 57.0803 25.9381 56.8868 25.242C56.6932 24.5459 56.534 23.9037 56.533 23.8147C56.5319 23.7039 57.0952 23.6376 58.3276 23.6037C60.0247 23.5572 60.1757 23.5291 61.0607 23.0931C62.6109 22.3297 63.5549 21.0737 64.0537 19.1113C64.5908 16.9986 64.5136 17.1561 65.0132 17.1561C65.9128 17.1561 66.4186 16.376 65.8729 15.8301C65.6756 15.633 64.4215 15.6092 54.1802 15.6092H42.7086L42.7991 14.4315C42.9154 12.9183 43.4534 11.0718 44.1952 9.63953C45.0505 7.98831 46.7645 6.29026 48.375 5.49854C52.043 3.69531 56.3427 4.43612 59.2768 7.37673C59.8974 7.99872 60.5456 8.68159 60.7173 8.89436C61.1096 9.3805 61.6471 9.40454 61.9454 8.94934C62.2156 8.53675 62.1336 8.30472 61.3588 7.28842C59.7713 5.20618 57.1142 3.63484 54.4145 3.18147L53.3672 3.00568L53.2969 2.03003C53.2582 1.49354 53.1754 0.975481 53.1128 0.878731C52.9221 0.584122 52.2116 0.669059 51.969 1.01556ZM17.3653 4.27328C13.8711 4.94139 10.8158 7.52382 9.70724 10.7458C9.5503 11.2019 9.42191 11.5969 9.42191 11.6235C9.42191 11.6499 13.7896 11.6717 19.1277 11.6717H28.8335L28.7444 11.285C28.5641 10.5035 27.6908 8.87214 26.937 7.90886C24.7374 5.09762 20.8252 3.61164 17.3653 4.27328ZM62.5884 11.4797C62.2056 11.9663 62.2204 12.3111 62.6421 12.7327C63.2863 13.3771 64.2657 12.9916 64.2657 12.0936C64.2657 11.1729 63.1506 10.7648 62.5884 11.4797ZM16.9455 23.8006C16.9119 23.8974 16.6865 24.6986 16.4446 25.5812C16.2029 26.4639 15.9725 27.2708 15.9327 27.3742C15.8736 27.528 16.4778 27.5623 19.2506 27.5623C21.1152 27.5623 22.6407 27.5246 22.6407 27.4787C22.6407 27.4327 22.4071 26.5467 22.1218 25.5099L21.6029 23.6248H19.3049C17.5929 23.6248 16.9912 23.6697 16.9455 23.8006ZM49.7335 25.5067C49.4504 26.5417 49.2188 27.4276 49.2188 27.4754C49.2188 27.5232 50.7326 27.5623 52.583 27.5623H55.9471L55.6653 26.5428C55.5104 25.982 55.2595 25.0962 55.1077 24.574L54.8318 23.6248H52.5399H50.248L49.7335 25.5067ZM4.41074 29.2623C3.57993 29.5031 2.64632 30.267 2.19154 31.078L1.75785 31.8514L1.71341 35.1974C1.66209 39.0649 1.75391 39.5562 2.72633 40.6156C4.25296 42.2786 6.73021 42.3637 8.34402 40.8085C8.6406 40.5227 9.02029 40.0358 9.18777 39.7264C9.48126 39.1841 9.49377 38.9835 9.53399 34.1365L9.57576 29.1092L7.21368 29.1219C5.91459 29.1289 4.65318 29.192 4.41074 29.2623ZM11.1377 33.9256C11.1775 38.4776 11.196 38.7772 11.4759 39.382C11.9141 40.3292 12.5687 40.9967 13.5313 41.4776C15.7822 42.6024 18.5156 41.512 19.4052 39.1346C19.667 38.435 19.6875 38.0417 19.6875 33.7445V29.1092H15.3916H11.0956L11.1377 33.9256ZM21.2627 33.9256C21.3025 38.4776 21.321 38.7772 21.6009 39.382C22.0391 40.3292 22.6937 40.9967 23.6563 41.4776C25.9072 42.6024 28.6406 41.512 29.5302 39.1346C29.792 38.435 29.8125 38.0417 29.8125 33.7445V29.1092H25.5166H21.2206L21.2627 33.9256ZM31.3877 33.9256C31.4275 38.4776 31.446 38.7772 31.7259 39.382C32.1641 40.3292 32.8187 40.9967 33.7813 41.4776C36.0322 42.6024 38.7656 41.512 39.6552 39.1346C39.917 38.435 39.9375 38.0417 39.9375 33.7445V29.1092H35.6416H31.3456L31.3877 33.9256ZM41.5127 33.9256C41.5525 38.4776 41.571 38.7772 41.8509 39.382C42.2891 40.3292 42.9437 40.9967 43.9063 41.4776C46.1572 42.6024 48.8906 41.512 49.7802 39.1346C50.042 38.435 50.0625 38.0417 50.0625 33.7445V29.1092H45.7666H41.4706L41.5127 33.9256ZM51.6094 33.7445C51.6094 38.0417 51.6299 38.435 51.8918 39.1346C52.2803 40.1729 52.9999 40.9622 54.0252 41.4746C56.2824 42.6026 59.0144 41.5153 59.9052 39.1346C60.167 38.435 60.1875 38.0417 60.1875 33.7445V29.1092H55.8985H51.6094V33.7445ZM61.7344 33.7445C61.7344 38.0417 61.7549 38.435 62.0168 39.1346C62.4053 40.1729 63.1249 40.9622 64.1502 41.4746C66.4183 42.6079 69.1393 41.5156 70.0393 39.1103C70.3087 38.39 70.3274 38.0874 70.2865 35.0914L70.2422 31.8514L69.8057 31.0817C69.33 30.2431 68.3992 29.4972 67.5256 29.2546C67.2409 29.1754 65.8214 29.1105 64.3711 29.11L61.7344 29.1092V33.7445ZM56.5558 61.919C55.9508 62.563 56.3573 63.5623 57.2241 63.5623C57.6795 63.5623 58.2188 63.0149 58.2188 62.5526C58.2188 62.1776 57.5954 61.5936 57.195 61.5936C57.0117 61.5936 56.7239 61.7401 56.5558 61.919ZM13.9291 61.9814C13.5005 62.3285 13.4933 63.1029 13.9154 63.4448C14.5947 63.9947 15.5236 63.5625 15.4993 62.7076C15.4838 62.1652 15.0656 61.7342 14.5547 61.7342C14.3785 61.7342 14.097 61.8454 13.9291 61.9814Z" fill="#492B29"/>
</g>
<defs>
<clipPath id="clip0_544_106">
<rect width="72" height="72" fill="white"/>
</clipPath>
</defs>
</svg>
