<svg width="72" height="72" viewBox="0 0 72 72" fill="none" xmlns="http://www.w3.org/2000/svg">
<path d="M32.4628 0.0294495C23.8258 1.05801 16.8514 4.29865 10.8491 10.0895C5.24139 15.4859 1.69077 22.2913 0.295885 30.2379C0.0281795 31.7737 0 32.5205 0 36.0147C0 39.509 0.0281795 40.2557 0.295885 41.7915C1.62032 49.3859 4.80461 55.6981 10.0601 61.1509C15.4565 66.7445 22.2618 70.3092 30.2085 71.7041C31.7443 71.9718 32.491 72 35.9853 72C40.3954 72 41.7198 71.8591 45.1859 70.9714C57.599 67.759 67.7295 57.6284 70.942 45.2153C71.8297 41.7493 71.9706 40.4248 71.9706 36.0147C71.9706 31.6046 71.8297 30.2802 70.942 26.8141C67.7295 14.401 57.6131 4.27047 45.1859 1.05801C42.0016 0.240799 40.4799 0.0576324 36.5489 0.0153656C34.5763 -0.0128174 32.7305 0.00127411 32.4628 0.0294495ZM39.9304 2.96012C47.4262 3.90414 53.992 7.08842 59.3461 12.3862C62.1218 15.1196 64.0662 17.8248 65.7851 21.2909C68.11 26.011 69.054 29.787 69.1949 34.9862C69.3639 40.9039 68.2931 45.8071 65.771 50.8513C63.1785 55.994 59.1207 60.5873 54.3161 63.7716C48.8633 67.3926 42.6216 69.2666 35.9853 69.2666C26.8833 69.2666 18.6267 65.7723 12.2299 59.2347C9.67967 56.6281 8.07344 54.416 6.45311 51.3162C3.91696 46.4412 2.73342 41.5661 2.73342 36.0147C2.73342 30.4634 3.91696 25.5883 6.45311 20.7132C8.17207 17.4021 10.0883 14.8519 12.9062 12.1326C18.2322 6.94753 24.7839 3.83369 32.2515 2.91785C33.8718 2.7206 38.1833 2.74878 39.9304 2.96012Z" fill="#492B29"/>
<path d="M31.9696 5.80604C25.2065 6.72188 19.1761 9.72299 14.3292 14.584C8.63693 20.3044 5.55127 27.8283 5.55127 36.0145C5.55127 40.5514 6.36848 44.412 8.17197 48.4839C10.4686 53.6267 14.3574 58.1918 19.1902 61.4184C20.3173 62.1651 22.8676 63.56 22.938 63.4614C22.9803 63.4191 23.8821 45.9055 23.868 45.2997C23.868 44.9897 23.7693 44.9051 23.2762 44.7643C19.4015 43.6371 16.6399 40.2273 15.6114 35.3241C14.7378 31.0972 15.3296 27.0816 17.274 23.9678C19.6833 20.1353 23.4594 17.9091 26.7141 18.4164C29.8702 18.9095 32.9841 21.4316 34.7735 24.954C35.8443 27.0675 36.2811 28.9414 36.2811 31.4635C36.267 36.0709 34.6607 40.326 32.0119 42.7071C31.0678 43.5525 30.3352 43.9752 28.8276 44.5388L27.6018 45.0038L27.644 45.7646C28.1231 55.5147 28.5317 63.405 28.6021 64.3631L28.6867 65.5889L29.6307 65.8003C33.3645 66.6457 38.3241 66.6598 42.3256 65.8144C43.2837 65.6171 45.693 64.9267 45.7071 64.8563C45.7776 64.5181 46.6511 46.6382 46.6089 46.5959C46.5666 46.5537 46.1157 46.3846 45.6226 46.2014C44.2418 45.7505 43.2273 45.0883 41.9451 43.8202C40.3389 42.2281 40.2826 42.0167 40.3107 37.8462C40.3389 34.0701 40.8602 27.7156 41.7761 20.0931C42.0015 18.1205 41.9311 18.2614 42.8892 18.2614H43.7345V28.4765V38.6916H44.7913H45.848V28.4765V18.2614H46.7638H47.6797V28.4765V38.6916H48.666H49.6522V28.4765V18.2614H50.709H51.7657V28.4765V38.6916H52.752H53.7383V28.4765V18.2614H54.3723C55.0909 18.2614 55.0486 18.1769 55.2741 20.0931C56.1899 27.7156 56.7112 34.0701 56.7394 37.8462C56.7676 42.0167 56.7112 42.2281 55.105 43.8202C53.8087 45.0883 52.8365 45.7364 51.3853 46.2296C50.864 46.4128 50.4131 46.6523 50.3849 46.7509C50.3286 47.0468 51.1739 62.2356 51.2444 62.3201C51.3712 62.4328 54.0905 60.5871 55.4009 59.4881C61.1354 54.6975 64.7001 48.5262 66.0668 41.0164C66.3768 39.2974 66.5036 34.5492 66.2923 32.633C65.4892 25.7008 62.4458 19.4027 57.5284 14.4712C54.1751 11.132 50.1031 8.58173 45.7776 7.14457C42.4242 6.03148 39.4935 5.56652 35.802 5.5947C34.4635 5.60878 32.7445 5.69332 31.9696 5.80604Z" fill="#492B29"/>
<path d="M18.9366 27.0962C17.9503 28.3502 17.2458 30.7032 17.1472 33.1548C17.0768 34.7469 17.0908 34.9583 17.4572 36.1136C18.1194 38.2553 18.8662 39.6079 20.0638 40.8055C21.5573 42.299 23.0226 43.0176 23.0226 42.2568C23.0226 42.1441 22.7408 41.6791 22.4027 41.2423C21.3882 39.9179 20.8387 38.8893 20.0497 36.7195L19.2889 34.6765V32.0699C19.2889 29.8014 19.3311 29.3083 19.6129 28.2797C19.8524 27.378 19.8947 27.068 19.7679 26.913C19.5284 26.6171 19.2748 26.6735 18.9366 27.0962Z" fill="#492B29"/>
</svg>
