<svg width="28" height="28" viewBox="0 0 28 28" fill="none" xmlns="http://www.w3.org/2000/svg">
<path fill-rule="evenodd" clip-rule="evenodd" d="M20.3742 2.76935C19.0417 2.62498 17.3621 2.62499 15.2195 2.625H12.7806C10.638 2.62499 8.95842 2.62498 7.62593 2.76935C6.26614 2.91667 5.16436 3.22271 4.22365 3.90618C3.65415 4.31995 3.15332 4.82077 2.73955 5.39027C2.55092 5.6499 2.38939 5.92411 2.25156 6.21596C1.82947 7.10972 1.6412 8.1461 1.54945 9.38196C1.45837 10.6088 1.45837 12.1126 1.45837 13.9668V14.0528C1.45836 16.1954 1.45836 17.875 1.60272 19.2074C1.75005 20.5672 2.05609 21.669 2.73955 22.6097C3.15332 23.1792 3.65415 23.6801 4.22365 24.0938C5.16436 24.7773 6.26614 25.0833 7.62593 25.2306C8.9584 25.375 10.6379 25.375 12.7805 25.375H15.2195C17.3621 25.375 19.0417 25.375 20.3742 25.2306C21.7339 25.0833 22.8357 24.7773 23.7764 24.0938C24.3459 23.6801 24.8468 23.1792 25.2605 22.6097C25.944 21.669 26.25 20.5672 26.3974 19.2074C26.5417 17.875 26.5417 16.1955 26.5417 14.0529V13.9661C26.5417 12.0992 26.5417 10.5873 26.4487 9.35555C26.3549 8.11424 26.1624 7.07442 25.7304 6.17804C25.5966 5.90023 25.4409 5.63855 25.2605 5.39027C24.8468 4.82077 24.3459 4.31995 23.7764 3.90618C22.8357 3.22271 21.7339 2.91667 20.3742 2.76935ZM5.25227 5.32196C5.84494 4.89136 6.60353 4.64036 7.81443 4.50917C9.0417 4.3762 10.6265 4.375 12.8334 4.375H15.1667C17.3735 4.375 18.9584 4.3762 20.1857 4.50917C21.3966 4.64036 22.1551 4.89136 22.7478 5.32196C23.1685 5.62764 23.5386 5.99761 23.8443 6.41829L21.6309 8.63171C19.669 10.5936 18.2584 12.0015 17.0418 12.9298C15.8454 13.8426 14.9399 14.2088 14 14.2088C13.0602 14.2088 12.1547 13.8426 10.9583 12.9298C9.74164 12.0015 8.33112 10.5936 6.36918 8.6317L4.15577 6.41829C4.46151 5.99761 4.83154 5.62764 5.25227 5.32196ZM24.5435 8.19394C24.614 8.56754 24.6663 8.99373 24.7036 9.48738C24.7911 10.6458 24.7917 12.0923 24.7917 14C24.7917 16.2068 24.7905 17.7917 24.6575 19.0189C24.5263 20.2298 24.2754 20.9884 23.8448 21.5811C23.5389 22.002 23.1687 22.3722 22.7478 22.678C22.1551 23.1086 21.3966 23.3596 20.1857 23.4908C18.9584 23.6238 17.3735 23.625 15.1667 23.625H12.8334C10.6265 23.625 9.0417 23.6238 7.81443 23.4908C6.60353 23.3596 5.84494 23.1086 5.25227 22.678C4.83134 22.3722 4.46116 22.002 4.15533 21.5811C3.72473 20.9884 3.47373 20.2298 3.34254 19.0189C3.20958 17.7917 3.20837 16.2068 3.20837 14C3.20837 12.1059 3.20892 10.6662 3.29465 9.51153C3.33206 9.00765 3.38491 8.57366 3.45654 8.19393L5.17907 9.91647C7.08339 11.8208 8.57576 13.3132 9.89674 14.3211C11.2488 15.3527 12.5237 15.9588 14 15.9588C15.4764 15.9588 16.7513 15.3527 18.1033 14.3211C19.4243 13.3132 20.9167 11.8208 22.821 9.9165L24.5435 8.19394Z" fill="white"/>
</svg>
