<svg width="28" height="28" viewBox="0 0 28 28" fill="none" xmlns="http://www.w3.org/2000/svg">
<path fill-rule="evenodd" clip-rule="evenodd" d="M14 7.2915C11.5838 7.2915 9.62502 9.25026 9.62502 11.6665C9.62502 14.0827 11.5838 16.0415 14 16.0415C16.4163 16.0415 18.375 14.0827 18.375 11.6665C18.375 9.25026 16.4163 7.2915 14 7.2915ZM11.375 11.6665C11.375 10.2168 12.5503 9.0415 14 9.0415C15.4498 9.0415 16.625 10.2168 16.625 11.6665C16.625 13.1163 15.4498 14.2915 14 14.2915C12.5503 14.2915 11.375 13.1163 11.375 11.6665Z" fill="white"/>
<path fill-rule="evenodd" clip-rule="evenodd" d="M14 0.291504C8.30279 0.291504 3.79169 5.24141 3.79169 11.21C3.79169 13.1242 4.74264 15.3782 5.9391 17.4934C7.15492 19.6429 8.70671 21.7888 10.0672 23.5237L10.1126 23.5816C10.7767 24.4285 11.3424 25.15 11.891 25.6483C12.4895 26.1919 13.1495 26.5479 14 26.5479C14.8506 26.5479 15.5106 26.1919 16.1091 25.6483C16.6576 25.15 17.2234 24.4285 17.8874 23.5815L17.9328 23.5237C19.2933 21.7888 20.8451 19.6429 22.0609 17.4934C23.2574 15.3782 24.2084 13.1242 24.2084 11.21C24.2084 5.24141 19.6972 0.291504 14 0.291504ZM5.54169 11.21C5.54169 6.08484 9.38793 2.0415 14 2.0415C18.6121 2.0415 22.4584 6.08484 22.4584 11.21C22.4584 12.6409 21.7121 14.5556 20.5377 16.6319C19.3827 18.6739 17.8899 20.7424 16.5557 22.4438C15.8336 23.3646 15.3582 23.9662 14.9324 24.3529C14.5441 24.7056 14.2849 24.7979 14 24.7979C13.7151 24.7979 13.4559 24.7056 13.0676 24.3529C12.6419 23.9662 12.1664 23.3646 11.4443 22.4438C10.1101 20.7424 8.61735 18.6739 7.46231 16.6319C6.28791 14.5556 5.54169 12.6409 5.54169 11.21Z" fill="white"/>
</svg>
