<svg width="72" height="72" viewBox="0 0 72 72" fill="none" xmlns="http://www.w3.org/2000/svg">
<g clip-path="url(#clip0_576_122)">
<path d="M69.3139 0H2.66736C0.525959 0.920428 0 1.72815 0 4.07618C0 21.4328 0 38.7895 0 56.1649C0 58.6068 1.29611 59.8842 3.73806 59.8842C12.9987 59.8842 22.2405 59.8842 31.5012 59.8842C31.7642 59.8842 32.0271 59.903 32.2713 59.8466C32.8536 59.6963 33.2293 59.3206 33.173 58.682C33.1354 58.0809 32.7597 57.7052 32.1398 57.6488C31.9144 57.6301 31.6702 57.6488 31.4448 57.6488C22.2405 57.6488 13.0363 57.6488 3.8132 57.6488C2.53587 57.6488 2.25411 57.3671 2.25411 56.071V12.3037H69.7083C69.7271 12.454 69.7271 12.5479 69.7271 12.6418C69.7271 27.1996 69.7271 41.7386 69.7271 56.2964C69.7271 57.0853 69.3702 57.5173 68.5813 57.6301C68.0553 57.7052 67.6796 57.9118 67.5106 58.4002C67.2288 59.2267 67.8863 59.9781 68.8443 59.8654C70.4597 59.6775 71.3989 58.6632 71.9812 57.2356V2.66736C71.568 1.3149 70.6663 0.432038 69.3139 0ZM69.7459 9.95565H2.25411V3.75685C2.25411 2.57344 2.57344 2.25411 3.73806 2.25411H67.8299C69.5768 2.25411 69.7271 2.42317 69.7271 4.18889V9.95565H69.7459Z" fill="#492B29"/>
<path d="M30.3928 17.5635C27.7442 17.5635 25.0957 17.5635 22.4471 17.5635V26.1667C21.583 25.6407 21.0758 24.4761 20.0051 24.7578C19.1411 24.9833 18.3897 25.6031 17.582 26.054V17.5635C14.9146 17.5635 12.266 17.5635 9.59867 17.5635C7.55119 17.5635 6.49927 18.6342 6.49927 20.6817C6.49927 27.2749 6.49927 33.8494 6.49927 40.4239C6.49927 42.6217 7.51362 43.6548 9.71137 43.6548C13.1301 43.6548 16.5488 43.6548 19.9676 43.6548C23.4427 43.6548 26.899 43.6548 30.374 43.6548C32.4591 43.6548 33.4922 42.6217 33.4922 40.5554C33.4922 33.9246 33.4922 27.2937 33.4922 20.6629C33.4734 18.5778 32.4591 17.5635 30.3928 17.5635ZM22.8603 35.8405C24.2128 35.8218 25.5841 35.8218 26.9365 35.8405C27.6879 35.8405 28.1199 36.2914 28.1199 36.93C28.1199 37.5687 27.6691 38.0383 26.9553 38.0759C26.6735 38.0947 26.4106 38.0947 26.1288 38.0947C25.6968 38.0947 25.2835 38.0759 24.8515 38.0947C24.6448 38.0947 24.457 38.0947 24.2504 38.0947C23.7996 38.0947 23.3487 38.0947 22.8979 38.0947C22.109 38.0759 21.6582 37.6438 21.6394 36.9676C21.6206 36.2726 22.0714 35.8405 22.8603 35.8405Z" fill="#492B29"/>
<path d="M51.8633 26.1287C55.0566 26.1287 58.2312 26.1287 61.4245 26.1287C63.5847 26.1287 64.9935 27.5 65.0311 29.6602C65.0686 31.5198 65.0686 33.3607 65.0311 35.2203C64.9935 37.3805 63.5659 38.7705 61.4245 38.7893C60.4665 38.8081 59.5085 38.8081 58.5505 38.7893C57.7052 38.7705 57.2168 38.3573 57.2168 37.6622C57.198 36.9672 57.6864 36.554 58.5317 36.5352C59.4897 36.5164 60.4477 36.5352 61.4057 36.5352C62.3449 36.5164 62.777 36.1032 62.7957 35.1452C62.8145 33.3419 62.8145 31.5386 62.7957 29.7353C62.777 28.7773 62.3825 28.3828 61.4057 28.3828C55.0378 28.3828 48.6512 28.3828 42.2833 28.3828C41.269 28.3828 40.8933 28.7773 40.8933 29.7916C40.8933 31.5574 40.8933 33.3043 40.8933 35.07C40.8933 36.1407 41.2878 36.5352 42.3961 36.5352C42.6027 36.5352 42.8281 36.5164 43.0347 36.554C43.617 36.6291 43.9739 36.9484 44.0303 37.5495C44.0866 38.1318 43.7861 38.5451 43.2226 38.7142C41.1187 39.3904 38.7331 37.7749 38.658 35.5772C38.6016 33.4921 38.6016 31.4071 38.658 29.322C38.6956 27.5375 40.1795 26.1475 42.0204 26.1475C45.3076 26.1099 48.5761 26.1287 51.8633 26.1287Z" fill="#492B29"/>
<path d="M14.877 49.2148C12.5665 49.2148 10.2373 49.2148 7.92684 49.2148C7.04398 49.2148 6.49923 48.8016 6.49923 48.1253C6.48045 47.4303 7.04398 46.9795 7.96441 46.9795C12.6041 46.9795 17.2438 46.9795 21.8835 46.9795C22.7664 46.9795 23.2923 47.3927 23.3111 48.0878C23.3299 48.8016 22.804 49.2336 21.8647 49.2336C19.5167 49.2336 17.1875 49.2148 14.877 49.2148Z" fill="#492B29"/>
<path d="M10.3313 51.732C11.1765 51.732 12.0218 51.7132 12.8671 51.732C13.6185 51.7508 14.0881 52.164 14.1069 52.8027C14.1257 53.4789 13.6561 53.9673 12.9047 53.9861C11.1765 54.0049 9.42961 54.0049 7.70146 53.9861C6.98766 53.9861 6.49927 53.4977 6.48049 52.8778C6.4617 52.2204 6.96888 51.7696 7.73903 51.7508C8.6031 51.732 9.46718 51.732 10.3313 51.732Z" fill="#492B29"/>
<path d="M67.8487 2.25391H3.73811C2.5547 2.25391 2.25415 2.57324 2.25415 3.75665V9.95545H69.7459V4.18868C69.7459 2.40418 69.5769 2.25391 67.8487 2.25391ZM6.74358 7.19416C6.1237 7.21295 5.61653 6.74334 5.63531 6.10468C5.63531 5.52236 6.10492 5.05276 6.70602 5.03397C7.30711 5.03397 7.75793 5.4848 7.77672 6.08589C7.77672 6.70577 7.3259 7.17538 6.74358 7.19416ZM11.4396 7.19416C10.8198 7.19416 10.3314 6.70577 10.3689 6.06711C10.3877 5.4848 10.8761 5.03397 11.4772 5.03397C12.0783 5.05276 12.5291 5.52236 12.5291 6.12346C12.5103 6.74334 12.0407 7.19416 11.4396 7.19416ZM17.2815 6.21738C17.2252 6.83726 16.6804 7.25051 16.0418 7.17538C15.4595 7.10024 15.0462 6.5555 15.1214 5.97319C15.1965 5.39087 15.7225 4.97762 16.3235 5.03397C16.8871 5.10911 17.3379 5.65385 17.2815 6.21738ZM64.1858 7.17538C63.9228 7.25051 63.6223 7.25051 63.3593 7.25051C50.9429 7.25051 38.5265 7.25051 26.1101 7.25051C25.8847 7.25051 25.6405 7.25051 25.4151 7.19416C24.814 7.06267 24.4571 6.6682 24.4947 6.04832C24.5323 5.42844 24.9079 5.07154 25.5278 5.01519C25.7908 4.99641 26.035 4.99641 26.298 4.99641H44.7065C50.8866 4.99641 57.0666 4.99641 63.2654 4.99641C63.5283 4.99641 63.7913 4.97762 64.0355 5.01519C64.5991 5.09033 64.9184 5.42844 64.9747 5.99197C65.0123 6.59307 64.7493 7.0251 64.1858 7.17538Z" fill="#492B29"/>
<path d="M65.4068 67.5105C65.4068 70.3281 63.735 71.9999 60.8986 71.9999C57.5926 71.9999 54.2866 71.9624 50.9805 72.0187C48.8391 72.0375 47.0358 71.2674 45.7022 69.6895C42.753 66.2144 39.8603 62.6642 37.0426 59.0764C36.4979 58.3814 36.1598 57.4046 36.0471 56.5029C35.6902 53.7417 38.3199 51.7317 40.9685 52.671C41.6448 52.8964 42.2834 53.3096 42.8282 53.7604C44.0116 54.6997 45.1198 55.7328 46.3784 56.8223V55.9206C46.3784 49.1583 46.3784 42.3772 46.3784 35.6149C46.3784 35.0326 46.416 34.4315 46.5474 33.8679C46.9607 32.0459 48.4634 30.8061 50.2479 30.7873C52.07 30.7685 53.6479 32.0271 54.0987 33.8867C54.2302 34.4315 54.2678 34.995 54.2678 35.5585C54.2866 38.8082 54.2678 42.0766 54.2678 45.3263V46.1153C55.9208 46.5473 57.5174 46.9418 59.1141 47.3926C59.9218 47.618 60.7108 47.8998 61.5185 48.144C63.4908 48.7826 65.4632 50.9804 65.4068 53.6102C65.3505 58.2311 65.4068 62.8708 65.4068 67.5105Z" fill="#492B29"/>
</g>
<defs>
<clipPath id="clip0_576_122">
<rect width="72" height="72" fill="white"/>
</clipPath>
</defs>
</svg>
