<svg width="72" height="72" viewBox="0 0 72 72" fill="none" xmlns="http://www.w3.org/2000/svg">
<path fill-rule="evenodd" clip-rule="evenodd" d="M19.1168 3.64774C17.8814 4.02644 17.7185 4.39122 17.7192 6.77805C17.7196 8.40592 17.7565 8.70869 18.0036 9.11383C18.5645 10.0341 17.4962 9.9843 36.703 9.9843C55.7558 9.9843 54.7749 10.027 55.3852 9.16994C55.6589 8.78561 55.6874 8.56441 55.6874 6.8267C55.6874 4.66769 55.5639 4.24849 54.8061 3.83435C54.379 3.60091 53.2928 3.58445 36.914 3.56167C27.3233 3.54845 19.3146 3.58713 19.1168 3.64774ZM18.5846 11.5696C17.7171 11.847 16.9444 12.7462 16.0919 14.4701C14.0121 18.6758 12.6342 23.118 11.7908 28.3359C11.4745 30.2922 11.4722 30.4143 11.4263 47.7181L11.3801 65.1315L11.7144 65.8587C12.2048 66.9252 12.7009 67.4351 13.7518 67.9525L14.6893 68.414H36.5595C60.1518 68.414 58.8638 68.4538 60.0818 67.6877C60.7491 67.2677 61.5219 66.2105 61.7609 65.3905C62.029 64.47 62.0293 32.9045 61.7611 30.4452C61.1009 24.3901 59.5822 19.0083 57.1972 14.2734C56.3482 12.5877 55.9481 12.1194 54.9843 11.6832C54.3579 11.3997 54.1696 11.3969 36.703 11.408C24.5944 11.4157 18.9071 11.4665 18.5846 11.5696ZM24.5256 23.218C24.2753 23.4946 24.2577 23.7783 24.2577 27.5422C24.2577 31.083 24.2891 31.6633 24.5168 32.3393C24.8661 33.3766 25.6607 34.5404 26.3571 35.0348C26.672 35.2584 27.0708 35.5724 27.2432 35.7326L27.5568 36.0241L27.5948 45.7752C27.6322 55.3744 27.6372 55.5323 27.9227 55.9145C28.4589 56.6327 28.9287 56.8827 29.7421 56.8827C30.5884 56.8827 31.0762 56.607 31.6054 55.8295L31.9218 55.3646V45.7385V36.1124L32.3909 35.6695C32.649 35.4259 33.1078 35.0288 33.4104 34.787C33.7132 34.5454 34.1638 34.0075 34.412 33.5917C35.1996 32.2718 35.2968 31.5927 35.2968 27.4113C35.2968 23.8321 35.2836 23.6462 35.0053 23.2923C34.7554 22.9745 34.6067 22.9218 33.9621 22.9218C32.3691 22.9218 32.3437 22.9906 32.3437 27.2882V30.6843L31.8655 31.1624L31.3874 31.6405H29.7421H28.0968L27.6187 31.1624L27.1405 30.6843V27.1736C27.1405 23.8347 27.1262 23.6448 26.849 23.2923C26.5896 22.9624 26.461 22.9218 25.6755 22.9218C24.9573 22.9218 24.7437 22.9768 24.5256 23.218ZM28.557 23.2923C28.2807 23.6436 28.2655 23.8367 28.2655 27.0109C28.2655 30.9419 28.2059 30.7968 29.822 30.7968C31.2606 30.7968 31.2187 30.9114 31.2187 26.9726C31.2187 23.8371 31.2033 23.6433 30.9271 23.2923C30.667 22.9615 30.54 22.9218 29.7421 22.9218C28.9442 22.9218 28.8172 22.9615 28.557 23.2923ZM41.9438 23.1901C41.0555 23.5179 40.5666 23.8536 39.8948 24.5972C38.8502 25.7534 38.3939 27.1038 38.3939 29.039C38.3939 31.2758 39.0851 33.0218 40.5081 34.3791C40.9801 34.8294 41.4247 35.3508 41.4957 35.5377C41.5698 35.7325 41.6252 40.0623 41.6255 45.677C41.6259 55.2655 41.6321 55.4865 41.9104 55.9431C42.0862 56.2314 42.4428 56.5194 42.8436 56.6965C43.905 57.1661 44.8184 56.8711 45.5273 55.8295L45.8437 55.3646V45.398V35.4315L46.8095 34.481C48.2146 33.0978 48.8888 31.6172 49.0308 29.6015C49.1275 28.2298 48.9266 27.0801 48.3898 25.9331C47.8355 24.7484 47.1121 23.9945 46.0079 23.4505C45.2114 23.0582 44.9046 22.9868 43.8784 22.9553C42.9715 22.9276 42.5004 22.9847 41.9438 23.1901Z" fill="#492B29"/>
</svg>
